# xmcd CD database file
#
# Track frame offsets:
#	180
#	12607
#	26227
#	38373
#	54358
#	70437
#	83464
#	96914
#	113220
#	127923
#	140680
#	155838
#	170018
#	187814
#	199938
#	213561
#
# Disc length: 3024 seconds
#
# Revision: 2
# Processed by: cddbd v1.5.2PL0 Copyright (c) Steve Scherf et al.
# Submitted via: CDex 1.51
#
DISCID=e10bce10
DTITLE=Rondalla Venezolana - Serenata
DYEAR=1900
DGENRE=Folklore
TTITLE0=Traicionera
TTITLE1=La Flor De La Canela
TTITLE2=Inquietud
TTITLE3=Motivos
TTITLE4=Mi Querencia
TTITLE5=Duerme
TTITLE6=Madrugada Llanera
TTITLE7=Se Que Te Perdí
TTITLE8=Mi Plegaria
TTITLE9=Desesperadamente
TTITLE10=Destino
TTITLE11=Noches Larenses
TTITLE12=Noche De Ronda
TTITLE13=Linda Merideña
TTITLE14=Frenesí
TTITLE15=Mi Tierra
EXTD=
EXTT0=
EXTT1=
EXTT2=
EXTT3=
EXTT4=
EXTT5=
EXTT6=
EXTT7=
EXTT8=
EXTT9=
EXTT10=
EXTT11=
EXTT12=
EXTT13=
EXTT14=
EXTT15=
PLAYORDER=
